# Blender 3.6.3
# www.blender.org
mtllib untitled.mtl
o Pencil
v -1.933654 6.124569 -0.282623
v 0.666377 2.756822 -0.350739
v -2.045067 6.035967 -0.154765
v 0.554963 2.668220 -0.222881
v -2.011910 6.057780 0.032413
v 0.588120 2.690033 -0.035703
v -1.867339 6.168194 0.091734
v 0.732691 2.800447 0.023618
v -1.755926 6.256796 -0.036124
v 0.844105 2.889049 -0.104241
v -1.789083 6.234983 -0.223303
v 0.810947 2.867236 -0.291419
v 0.777714 2.379697 -0.228717
v 0.889128 2.468298 -0.356575
v 0.810871 2.401510 -0.041538
v 0.955442 2.511924 0.017782
v 1.066856 2.600525 -0.110076
v 1.033698 2.578713 -0.297255
v -2.333076 6.691864 -0.127163
v -2.358583 6.671580 -0.097891
v -2.350992 6.676574 -0.055039
v -2.317895 6.701852 -0.041459
v -2.292388 6.722136 -0.070730
v -2.299979 6.717142 -0.113582
v -2.459318 6.870207 -0.080805
v 1.071397 2.087733 -0.217662
v 0.994294 2.099167 -0.234391
v 1.105708 2.187768 -0.362249
v 1.149711 2.150012 -0.307535
v 1.094703 2.103065 -0.086092
v 1.027451 2.120979 -0.047212
v 1.196324 2.180677 -0.044395
v 1.172022 2.231394 0.012108
v 1.274638 2.242956 -0.134268
v 1.283436 2.319995 -0.115750
v 1.251331 2.227623 -0.265838
v 1.250278 2.298182 -0.302929
vn -0.5363 -0.3990 -0.7438
vn -0.7724 -0.6005 0.2068
vn -0.2361 -0.2015 0.9506
vn 0.5363 0.3990 0.7438
vn 0.7724 0.6005 -0.2068
vn 0.2361 0.2015 -0.9506
vn 0.6110 -0.7914 -0.0160
vn 0.4171 0.5354 0.7344
vn 0.1284 0.3336 -0.9339
vn -0.8701 -0.4476 0.2063
vn 0.6493 0.7336 -0.2005
vn -0.6379 -0.2494 -0.7287
vn -0.3426 -0.0552 0.9378
vn 0.1218 0.3412 -0.9321
vn 0.4241 0.5282 0.7356
vn -0.8654 -0.4566 0.2065
vn 0.6568 0.7268 -0.2010
vn -0.3369 -0.0635 0.9394
vn -0.6327 -0.2581 -0.7301
vn 0.0014 -0.8225 -0.5687
vn -0.1758 -0.9737 0.1446
vn 0.2267 -0.6743 0.7028
vn 0.8063 -0.2237 0.5476
vn 0.9835 -0.0725 -0.1658
vn 0.5811 -0.3719 -0.7239
vt 1.000000 0.500000
vt 1.000000 1.000000
vt 0.833333 1.000000
vt 0.833333 0.500000
vt 0.666667 1.000000
vt 0.666667 0.500000
vt 0.500000 1.000000
vt 0.500000 0.500000
vt 0.333333 1.000000
vt 0.333333 0.500000
vt 0.166667 1.000000
vt 0.166667 0.500000
vt -0.000000 1.000000
vt -0.000000 0.500000
vt 0.666667 1.000000
vt 0.396098 0.334350
vt 0.250000 0.418699
vt 0.103902 0.334349
vt 0.103902 0.165651
vt 0.250000 0.081301
vt 0.396098 0.165651
vt 0.500000 1.000000
vt 0.166667 1.000000
vt 0.395169 0.500000
vt 0.561836 0.500000
vt 0.228502 0.500000
vt 0.123672 0.500000
vt 0.728502 0.500000
vt 0.895169 0.500000
vt 0.457846 0.370000
vt 0.250000 0.490000
vt 0.457846 0.130000
vt 0.250000 0.010000
vt 0.042154 0.130000
vt 0.250000 0.010000
vt 0.042154 0.370000
s 0
usemtl Material.001
f 1/1/1 2/2/1 4/3/1 3/4/1
f 3/4/2 4/3/2 6/5/2 5/6/2
f 5/6/3 6/5/3 8/7/3 7/8/3
f 7/8/4 8/7/4 10/9/4 9/10/4
f 9/10/5 10/9/5 12/11/5 11/12/5
f 11/12/6 12/11/6 2/13/6 1/14/6
usemtl Material.002
f 10/9/4 8/7/4 16/7/4 17/9/4
f 6/5/2 4/3/2 13/3/2 15/5/2
f 12/11/5 10/9/5 17/9/5 18/11/5
f 4/3/1 2/2/1 14/2/1 13/3/1
f 8/7/3 6/5/3 15/5/3 16/7/3
f 2/13/6 12/11/6 18/11/6 14/13/6
usemtl Material.003
f 15/5/2 13/3/2 27/3/2 31/15/2
f 17/9/4 16/7/4 33/7/4 35/9/4
f 26/16/7 29/17/7 36/18/7 34/19/7 32/20/7 30/21/7
f 16/7/3 15/5/3 31/5/3 33/22/3
f 18/11/5 17/9/5 35/9/5 37/23/5
f 14/13/6 18/11/6 37/23/6 28/13/6
f 27/30/20 28/31/20 29/17/20 26/16/20
f 31/32/21 27/30/21 26/16/21 30/21/21
f 33/33/22 31/32/22 30/21/22 32/20/22
f 35/34/23 33/35/23 32/20/23 34/19/23
f 37/36/24 35/34/24 34/19/24 36/18/24
f 28/31/25 37/36/25 36/18/25 29/17/25
f 13/3/1 14/2/1 28/2/1 27/3/1
usemtl Material.004
f 7/8/8 9/10/8 23/24/8 22/25/8
f 3/4/10 5/6/10 21/28/10 20/29/10
f 9/10/11 11/12/11 24/26/11 23/24/11
f 1/1/12 3/4/12 20/29/12 19/1/12
f 5/6/13 7/8/13 22/25/13 21/28/13
f 11/12/14 1/14/14 19/27/14 24/26/14
usemtl Material.005
f 24/26/9 19/27/9 25/12/9
f 22/25/15 23/24/15 25/8/15
f 20/29/16 21/28/16 25/4/16
f 23/24/17 24/26/17 25/10/17
f 21/28/18 22/25/18 25/6/18
f 19/1/19 20/29/19 25/1/19
o Cup
v -0.980400 5.083503 -0.980400
v -1.280955 5.083503 -0.530589
v -1.386496 5.083503 0.000000
v -1.280955 5.083503 0.530589
v -0.980400 5.083503 0.980400
v -0.530589 5.083503 1.280955
v 0.000000 5.083503 1.386496
v 0.530589 5.083503 1.280955
v 0.980400 5.083503 0.980400
v 1.280955 5.083503 0.530589
v 1.386496 5.083503 0.000000
v 1.280955 5.083503 -0.530589
v 0.980400 5.083503 -0.980400
v -0.530589 5.083503 -1.280955
v 0.000000 5.083503 -1.386496
v 0.530589 5.083503 -1.280955
v 0.000000 4.834081 -1.537581
v -0.588407 4.834081 -1.420539
v -1.087234 4.834081 -1.087234
v -1.420539 4.834081 -0.588407
v -1.537581 4.834081 0.000000
v -1.420539 4.834081 0.588407
v -1.087234 4.834081 1.087234
v -0.588407 4.834081 1.420539
v 0.000000 4.834081 1.537581
v 0.588407 4.834081 1.420539
v 1.087234 4.834081 1.087234
v 1.420539 4.834081 0.588407
v 1.537581 4.834081 0.000000
v 1.420539 4.834081 -0.588407
v 1.087234 4.834081 -1.087234
v 0.588407 4.834081 -1.420539
v 0.472771 2.153647 -1.141371
v 0.000000 2.153647 -1.235411
v 0.873567 2.153647 -0.873567
v 1.141371 2.153647 -0.472771
v 1.235411 2.153647 0.000000
v 1.141371 2.153647 0.472771
v 0.873567 2.153647 0.873567
v 0.472771 2.153647 1.141371
v 0.000000 2.153647 1.235411
v -0.472771 2.153647 1.141371
v -0.873567 2.153647 0.873567
v -1.141371 2.153647 0.472771
v -1.235411 2.153647 0.000000
v -1.141371 2.153647 -0.472771
v -0.873567 2.153647 -0.873567
v -0.472771 2.153647 -1.141371
v -0.000000 4.909262 -1.580531
v 0.604843 4.909262 -1.460220
v 1.117604 4.909262 -1.117604
v 1.460220 4.909262 -0.604843
v 1.580531 4.909262 -0.000000
v 1.460220 4.909262 0.604843
v 1.117604 4.909262 1.117604
v 0.604843 4.909262 1.460220
v -0.000000 4.909262 1.580531
v -0.604843 4.909262 1.460220
v -1.117604 4.909262 1.117604
v -1.460220 4.909262 0.604843
v -1.580531 4.909262 -0.000000
v -1.460220 4.909262 -0.604843
v -1.117604 4.909262 -1.117604
v -0.604843 4.909262 -1.460220
v -0.873567 4.902706 0.873567
v -1.141371 4.902706 0.472771
v 1.141371 4.902706 -0.472771
v 1.235411 4.902706 0.000000
v -1.235411 4.902706 0.000000
v 1.141371 4.902706 0.472771
v -1.141371 4.902706 -0.472771
v 0.873567 4.902706 0.873567
v -0.873567 4.902706 -0.873567
v 0.472771 4.902706 1.141371
v -0.472771 4.902706 -1.141371
v 0.000000 4.902706 1.235411
v 0.000000 4.902706 -1.235411
v 0.472771 4.902706 -1.141371
v -0.472771 4.902706 1.141371
v 0.873567 4.902706 -0.873567
v -0.000000 4.992857 -1.580389
v 0.000000 5.065248 -1.522430
v 0.582609 5.065248 -1.406542
v 0.604789 4.992857 -1.460089
v 1.076520 5.065248 -1.076520
v 1.117504 4.992857 -1.117504
v 1.406542 5.065248 -0.582609
v 1.460089 4.992857 -0.604789
v 1.522430 5.065248 0.000000
v 1.580389 4.992857 -0.000000
v 1.406542 5.065248 0.582609
v 1.460089 4.992857 0.604789
v 1.076520 5.065248 1.076520
v 1.117504 4.992857 1.117504
v 0.582609 5.065248 1.406542
v 0.604789 4.992857 1.460089
v 0.000000 5.065248 1.522430
v -0.000000 4.992857 1.580389
v -0.582609 5.065248 1.406542
v -0.604789 4.992857 1.460089
v -1.076520 5.065248 1.076520
v -1.117504 4.992857 1.117504
v -1.406542 5.065248 0.582609
v -1.460089 4.992857 0.604789
v -1.522430 5.065248 0.000000
v -1.580389 4.992857 -0.000000
v -1.406542 5.065248 -0.582609
v -1.460089 4.992857 -0.604789
v -1.076520 5.065248 -1.076520
v -1.117504 4.992857 -1.117504
v -0.582609 5.065248 -1.406542
v -0.604789 4.992857 -1.460089
v 0.472771 4.992857 -1.141371
v 0.499952 5.056190 -1.206992
v 0.000000 5.056190 -1.306439
v 0.000000 4.992857 -1.235411
v 0.873567 4.992857 -0.873567
v 0.923791 5.056190 -0.923791
v 1.141371 4.992857 -0.472771
v 1.206992 5.056190 -0.499952
v 1.235411 4.992857 0.000000
v 1.306439 5.056190 0.000000
v 1.141371 4.992857 0.472771
v 1.206992 5.056190 0.499952
v 0.873567 4.992857 0.873567
v 0.923791 5.056190 0.923791
v 0.472771 4.992857 1.141371
v 0.499952 5.056190 1.206992
v 0.000000 4.992857 1.235411
v 0.000000 5.056190 1.306439
v -0.472771 4.992857 1.141371
v -0.499952 5.056190 1.206992
v -0.873567 4.992857 0.873567
v -0.923791 5.056190 0.923791
v -1.141371 4.992857 0.472771
v -1.206992 5.056190 0.499952
v -1.235411 4.992857 0.000000
v -1.306439 5.056190 0.000000
v -1.141371 4.992857 -0.472771
v -1.206992 5.056190 -0.499952
v -0.873567 4.992857 -0.873567
v -0.923791 5.056190 -0.923791
v -0.472771 4.992857 -1.141371
v -0.499952 5.056190 -1.206992
v 0.000000 1.922745 -1.477115
v 0.000000 1.982049 -1.537581
v 0.565267 1.922745 -1.364676
v 0.588407 1.982049 -1.420539
v 1.044478 1.922745 -1.044478
v 1.087234 1.982049 -1.087234
v 1.364676 1.922745 -0.565267
v 1.420539 1.982049 -0.588407
v 1.477115 1.922745 0.000000
v 1.537581 1.982049 0.000000
v 1.364676 1.922745 0.565267
v 1.420539 1.982049 0.588407
v 1.044478 1.922745 1.044478
v 1.087234 1.982049 1.087234
v 0.565267 1.922745 1.364676
v 0.588407 1.982049 1.420539
v 0.000000 1.922745 1.477115
v 0.000000 1.982049 1.537581
v -0.565267 1.922745 1.364676
v -0.588407 1.982049 1.420539
v -1.044478 1.922745 1.044478
v -1.087234 1.982049 1.087234
v -1.364676 1.922745 0.565267
v -1.420539 1.982049 0.588407
v -1.477115 1.922745 0.000000
v -1.537581 1.982049 0.000000
v -1.364676 1.922745 -0.565267
v -1.420539 1.982049 -0.588407
v -1.044478 1.922745 -1.044478
v -1.087234 1.982049 -1.087234
v -0.565267 1.922745 -1.364676
v -0.588407 1.982049 -1.420539
vn -0.1951 0.0017 -0.9808
vn -0.2732 0.9445 0.1825
vn -0.3222 0.9445 0.0641
vn -0.3222 0.9445 -0.0641
vn -0.2732 0.9445 -0.1825
vn -0.1825 0.9445 -0.2732
vn -0.0641 0.9445 -0.3222
vn 0.0641 0.9445 -0.3222
vn 0.1825 0.9445 -0.2732
vn 0.2732 0.9445 -0.1825
vn 0.3222 0.9445 -0.0641
vn 0.3222 0.9445 0.0641
vn 0.2732 0.9445 0.1825
vn 0.1825 0.9445 0.2732
vn 0.9808 0.0017 0.1951
vn -0.1951 -0.0000 0.9808
vn 0.0641 0.9445 0.3222
vn -0.1951 -0.0000 -0.9808
vn 0.8315 -0.0000 -0.5556
vn -0.5556 0.0017 0.8315
vn -0.5556 0.0017 -0.8315
vn 0.8315 0.0017 -0.5556
vn 0.1951 0.0017 0.9808
vn -0.9808 0.0017 -0.1951
vn 0.1951 0.0017 -0.9808
vn 0.8315 0.0017 0.5556
vn -0.8315 0.0017 0.5556
vn -0.1825 0.9445 0.2732
vn 0.9808 0.0017 -0.1951
vn -0.1951 0.0017 0.9808
vn -0.8315 0.0017 -0.5556
vn 0.5556 0.0017 -0.8315
vn 0.5556 0.0017 0.8315
vn -0.9808 0.0017 0.1951
vn -0.0000 1.0000 -0.0000
vn -0.9808 -0.0000 0.1951
vn 0.9808 -0.0000 -0.1951
vn -0.9808 -0.0000 -0.1951
vn 0.9808 -0.0000 0.1951
vn -0.8315 -0.0000 -0.5556
vn 0.8315 -0.0000 0.5556
vn -0.5556 -0.0000 -0.8315
vn 0.5556 -0.0000 0.8315
vn 0.1951 -0.0000 0.9808
vn 0.1951 -0.0000 -0.9808
vn -0.5556 -0.0000 0.8315
vn 0.5556 -0.0000 -0.8315
vn -0.8315 -0.0000 0.5556
vn -0.1702 -0.4888 -0.8556
vn -0.4847 -0.4888 -0.7254
vn -0.7254 -0.4888 -0.4847
vn -0.8556 -0.4888 -0.1702
vn -0.8556 -0.4888 0.1702
vn -0.7254 -0.4888 0.4847
vn -0.4847 -0.4888 0.7254
vn -0.1702 -0.4888 0.8556
vn 0.1702 -0.4888 0.8556
vn 0.4847 -0.4888 0.7254
vn 0.7254 -0.4888 0.4847
vn 0.8556 -0.4888 0.1702
vn 0.8556 -0.4888 -0.1702
vn 0.7254 -0.4888 -0.4847
vn 0.4847 -0.4888 -0.7254
vn 0.1702 -0.4888 -0.8556
vn -0.0000 -1.0000 -0.0000
vn 0.1534 0.6176 -0.7714
vn 0.4370 0.6176 -0.6539
vn 0.6539 0.6176 -0.4370
vn 0.7714 0.6176 -0.1534
vn 0.7714 0.6176 0.1534
vn 0.6539 0.6176 0.4370
vn 0.4370 0.6176 0.6539
vn 0.1534 0.6176 0.7714
vn -0.1534 0.6176 0.7714
vn -0.4370 0.6176 0.6539
vn -0.6539 0.6176 0.4370
vn -0.7714 0.6176 0.1534
vn -0.7714 0.6176 -0.1534
vn -0.6539 0.6176 -0.4370
vn -0.4370 0.6176 -0.6539
vn -0.1534 0.6176 -0.7714
vn -0.1312 0.7399 0.6598
vn -0.3737 0.7399 0.5593
vn -0.5593 0.7399 0.3737
vn -0.6598 0.7399 0.1312
vn -0.6598 0.7399 -0.1312
vn -0.5593 0.7399 -0.3737
vn -0.3737 0.7399 -0.5593
vn -0.1312 0.7399 -0.6598
vn 0.1312 0.7399 -0.6598
vn 0.3737 0.7399 -0.5593
vn 0.5593 0.7399 -0.3737
vn 0.6598 0.7399 -0.1312
vn 0.6598 0.7399 0.1312
vn 0.5593 0.7399 0.3737
vn 0.3737 0.7399 0.5593
vn 0.1312 0.7399 0.6598
vn -0.0641 0.9445 0.3222
vn 0.0265 0.9908 -0.1330
vn 0.0754 0.9908 -0.1128
vn -0.0265 0.9908 -0.1330
vn -0.0754 0.9908 -0.1128
vn -0.1128 0.9908 -0.0754
vn -0.1330 0.9908 -0.0265
vn -0.1330 0.9908 0.0265
vn -0.1128 0.9908 0.0754
vn -0.0754 0.9908 0.1128
vn -0.0265 0.9908 0.1330
vn 0.0265 0.9908 0.1330
vn 0.0754 0.9908 0.1128
vn 0.1128 0.9908 0.0754
vn 0.1330 0.9908 0.0265
vn 0.1330 0.9908 -0.0265
vn 0.1128 0.9908 -0.0754
vn 0.1379 -0.7071 -0.6935
vn 0.3928 -0.7071 -0.5879
vn 0.5879 -0.7071 -0.3928
vn 0.6935 -0.7071 -0.1379
vn 0.6935 -0.7071 0.1379
vn 0.5879 -0.7071 0.3928
vn 0.3928 -0.7071 0.5879
vn 0.1379 -0.7071 0.6935
vn -0.1379 -0.7071 0.6935
vn -0.3928 -0.7071 0.5879
vn -0.5879 -0.7071 0.3928
vn -0.6935 -0.7071 0.1379
vn -0.6935 -0.7071 -0.1379
vn -0.5879 -0.7071 -0.3928
vn -0.3928 -0.7071 -0.5879
vn -0.1379 -0.7071 -0.6935
vt 0.062500 0.983564
vt 0.062500 0.993251
vt 0.000000 0.993251
vt 0.000000 0.983563
vt 0.812500 1.000000
vt 0.875000 1.000000
vt 0.750000 1.000000
vt 0.687500 1.000000
vt 0.687500 1.000000
vt 0.625000 1.000000
vt 0.562500 1.000000
vt 0.500000 1.000000
vt 0.437500 1.000000
vt 0.375000 1.000000
vt 0.312500 1.000000
vt 0.250000 1.000000
vt 0.187500 1.000000
vt 0.125000 1.000000
vt 0.062500 1.000000
vt 0.750000 0.983564
vt 0.750000 0.993251
vt 0.687500 0.993251
vt 0.687500 0.983564
vt 0.937500 1.000000
vt 1.000000 1.000000
vt 0.000000 1.000000
vt 0.062500 0.509623
vt 0.062500 0.972428
vt 0.000000 0.972428
vt 0.000000 0.509623
vt 0.437500 0.983564
vt 0.437500 0.993251
vt 0.375000 0.993251
vt 0.375000 0.983564
vt 0.125000 0.983564
vt 0.125000 0.993251
vt 0.875000 0.983564
vt 0.875000 0.993251
vt 0.812500 0.993251
vt 0.812500 0.983564
vt 0.562500 0.983564
vt 0.562500 0.993251
vt 0.500000 0.993251
vt 0.500000 0.983564
vt 0.250000 0.983564
vt 0.250000 0.993251
vt 0.187500 0.993251
vt 0.187500 0.983564
vt 1.000000 0.983564
vt 1.000000 0.993251
vt 0.937500 0.993251
vt 0.937500 0.983564
vt 0.625000 0.993251
vt 0.625000 0.983564
vt 0.312500 0.993251
vt 0.312500 0.983564
vt 0.341844 0.471731
vt 0.250000 0.490000
vt 0.158156 0.471731
vt 0.080294 0.419706
vt 0.028269 0.341844
vt 0.010000 0.250000
vt 0.028269 0.158156
vt 0.080294 0.080294
vt 0.158156 0.028269
vt 0.250000 0.010000
vt 0.341844 0.028269
vt 0.419706 0.080294
vt 0.471731 0.158156
vt 0.490000 0.250000
vt 0.471731 0.341844
vt 0.419706 0.419706
vt 0.562500 1.000000
vt 0.125000 0.972428
vt 0.187500 0.972428
vt 0.250000 0.972428
vt 0.312500 0.972428
vt 0.375000 0.972428
vt 0.437500 0.972428
vt 0.500000 0.972428
vt 0.562500 0.972428
vt 0.625000 0.972428
vt 0.687500 0.972428
vt 0.750000 0.972428
vt 0.812500 0.972428
vt 0.875000 0.972428
vt 0.937500 0.972428
vt 1.000000 0.972428
vt 0.750000 0.480562
vt 0.838232 0.463012
vt 0.913032 0.413032
vt 0.963011 0.338232
vt 0.980562 0.250000
vt 0.963011 0.161768
vt 0.913032 0.086968
vt 0.838232 0.036989
vt 0.750000 0.019438
vt 0.661768 0.036989
vt 0.586968 0.086968
vt 0.536989 0.161768
vt 0.519438 0.250000
vt 0.536988 0.338232
vt 0.586968 0.413032
vt 0.661768 0.463012
vt 0.937500 1.000000
vt 0.875000 0.509623
vt 0.812500 0.509623
vt 0.812500 0.509623
vt 0.750000 0.509623
vt 0.750000 0.509623
vt 0.687500 0.509623
vt 0.625000 0.509623
vt 0.562500 0.509623
vt 0.562500 0.509623
vt 0.500000 0.509623
vt 0.500000 0.509623
vt 0.437500 0.509623
vt 0.375000 0.509623
vt 0.312500 0.509623
vt 0.312500 0.509623
vt 0.250000 0.509623
vt 0.250000 0.509623
vt 0.187500 0.509623
vt 0.125000 0.509623
vt 0.062500 0.509623
vt 0.937500 0.509623
vt 0.750000 0.490000
vt 0.841844 0.471731
vt 0.919706 0.419706
vt 0.971731 0.341844
vt 0.990000 0.250000
vt 0.971731 0.158156
vt 0.919706 0.080294
vt 0.841844 0.028269
vt 0.750000 0.010000
vt 0.658156 0.028269
vt 0.580294 0.080294
vt 0.528269 0.158156
vt 0.510000 0.250000
vt 0.528269 0.341844
vt 0.580294 0.419706
vt 0.658156 0.471731
vt 1.000000 0.509623
vt 0.937500 0.509623
s 0
usemtl Cup
f 213/63/43 55/64/43 54/65/43 183/66/43
f 182/125/90 184/126/90 186/127/90 188/128/90 190/129/90 192/130/90 194/131/90 196/132/90 198/133/90 200/134/90 202/135/90 204/136/90 206/137/90 208/138/90 210/139/90 212/140/90
f 187/142/44 68/122/44 67/121/44 189/143/44
f 189/144/62 67/121/62 66/120/62 191/145/62
f 191/146/64 66/120/64 65/119/64 193/147/64
f 193/147/66 65/119/66 64/118/66 195/148/66
f 195/148/68 64/118/68 63/117/68 197/149/68
f 197/150/69 63/117/69 62/116/69 199/151/69
f 199/152/41 62/116/41 61/115/41 201/153/41
f 201/153/71 61/115/71 60/114/71 203/154/71
f 203/154/73 60/114/73 59/113/73 205/155/73
f 205/156/61 59/113/61 58/112/61 207/157/61
f 207/158/63 58/112/63 57/111/63 209/159/63
f 209/159/65 57/111/65 56/110/65 211/160/65
f 211/160/67 56/110/67 55/64/67 213/161/67
f 185/162/72 69/123/72 68/122/72 187/142/72
f 183/163/140 185/164/140 184/126/140 182/125/140
f 185/164/141 187/165/141 186/127/141 184/126/141
f 187/165/142 189/166/142 188/128/142 186/127/142
f 189/166/143 191/167/143 190/129/143 188/128/143
f 191/167/144 193/168/144 192/130/144 190/129/144
f 193/168/145 195/169/145 194/131/145 192/130/145
f 195/169/146 197/170/146 196/132/146 194/131/146
f 197/170/147 199/171/147 198/133/147 196/132/147
f 199/171/148 201/172/148 200/134/148 198/133/148
f 201/172/149 203/173/149 202/135/149 200/134/149
f 203/173/150 205/174/150 204/136/150 202/135/150
f 205/174/151 207/175/151 206/137/151 204/136/151
f 207/175/152 209/176/152 208/138/152 206/137/152
f 209/176/153 211/177/153 210/139/153 208/138/153
f 211/177/154 213/178/154 212/140/154 210/139/154
f 213/178/155 183/163/155 182/125/155 212/140/155
f 183/179/70 54/124/70 69/123/70 185/180/70
usemtl Cup2
f 101/37/26 149/38/26 118/39/26 86/40/26
f 49/41/27 50/42/27 155/42/27 157/41/27
f 48/43/28 49/41/28 157/41/28 159/43/28
f 47/44/29 48/43/29 159/43/29 161/45/29
f 46/46/30 47/44/30 161/44/30 163/46/30
f 45/47/31 46/46/31 163/46/31 165/47/31
f 44/48/32 45/47/32 165/47/32 167/48/32
f 43/49/33 44/48/33 167/48/33 169/49/33
f 42/50/34 43/49/34 169/49/34 171/50/34
f 41/51/35 42/50/35 171/50/35 173/51/35
f 40/52/36 41/51/36 173/51/36 175/52/36
f 39/53/37 40/52/37 175/52/37 177/53/37
f 38/54/38 39/53/38 177/53/38 179/54/38
f 51/55/39 38/54/39 179/54/39 181/55/39
f 90/56/40 127/57/40 129/58/40 91/59/40
f 150/60/41 153/61/41 114/61/41 115/60/41
f 52/62/42 51/55/42 181/55/42 152/62/42
f 103/51/44 102/50/44 80/50/44 81/51/44
f 95/67/45 137/68/45 139/69/45 96/70/45
f 100/71/46 147/72/46 149/38/46 101/37/46
f 88/73/47 123/74/47 125/75/47 89/76/47
f 93/77/48 133/78/48 135/79/48 94/80/48
f 98/81/49 143/82/49 145/83/49 99/84/49
f 86/85/50 118/86/50 121/87/50 87/88/50
f 91/59/51 129/58/51 131/89/51 92/90/51
f 96/70/52 139/69/52 141/91/52 97/92/52
f 50/42/53 53/60/53 151/60/53 155/42/53
f 89/76/54 125/75/54 127/57/54 90/56/54
f 94/80/55 135/79/55 137/68/55 95/67/55
f 99/84/56 145/83/56 147/72/56 100/71/56
f 87/88/57 121/87/57 123/74/57 88/73/57
f 92/90/58 131/89/58 133/78/58 93/77/58
f 97/92/59 141/91/59 143/82/59 98/81/59
f 70/93/60 71/94/60 85/95/60 84/96/60 83/97/60 82/98/60 81/99/60 80/100/60 79/101/60 78/102/60 77/103/60 76/104/60 75/105/60 74/106/60 73/107/60 72/108/60
f 105/43/61 104/41/61 73/41/61 74/43/61
f 106/52/62 103/51/62 81/51/62 82/52/62
f 107/44/63 105/43/63 74/43/63 75/44/63
f 108/53/64 106/52/64 82/52/64 83/53/64
f 109/46/65 107/44/65 75/44/65 76/46/65
f 110/54/66 108/53/66 83/53/66 84/54/66
f 111/109/67 109/46/67 76/46/67 77/47/67
f 112/55/68 110/54/68 84/54/68 85/55/68
f 113/48/43 111/109/43 77/47/43 78/48/43
f 115/60/41 114/61/41 71/61/41 70/60/41
f 114/62/69 112/55/69 85/55/69 71/62/69
f 116/49/70 113/48/70 78/48/70 79/49/70
f 117/42/71 115/60/71 70/60/71 72/42/71
f 102/50/72 116/49/72 79/49/72 80/50/72
f 104/41/73 117/42/73 72/42/73 73/41/73
f 55/64/74 101/37/74 86/40/74 54/65/74
f 56/110/75 100/71/75 101/37/75 55/64/75
f 57/111/76 99/84/76 100/71/76 56/110/76
f 58/112/77 98/81/77 99/84/77 57/111/77
f 59/113/78 97/92/78 98/81/78 58/112/78
f 60/114/79 96/70/79 97/92/79 59/113/79
f 61/115/80 95/67/80 96/70/80 60/114/80
f 62/116/81 94/80/81 95/67/81 61/115/81
f 63/117/82 93/77/82 94/80/82 62/116/82
f 64/118/83 92/90/83 93/77/83 63/117/83
f 65/119/84 91/59/84 92/90/84 64/118/84
f 66/120/85 90/56/85 91/59/85 65/119/85
f 67/121/86 89/76/86 90/56/86 66/120/86
f 68/122/87 88/73/87 89/76/87 67/121/87
f 69/123/88 87/88/88 88/73/88 68/122/88
f 54/124/89 86/85/89 87/88/89 69/123/89
f 158/43/61 156/41/61 104/41/61 105/43/61
f 172/51/44 170/50/44 102/50/44 103/51/44
f 153/62/69 180/55/69 112/55/69 114/62/69
f 170/50/72 168/49/72 116/49/72 102/50/72
f 156/41/73 154/42/73 117/42/73 104/41/73
f 154/42/71 150/60/71 115/60/71 117/42/71
f 168/49/70 166/48/70 113/48/70 116/49/70
f 166/48/43 164/47/43 111/109/43 113/48/43
f 180/55/68 178/54/68 110/54/68 112/55/68
f 164/47/67 162/46/67 109/46/67 111/109/67
f 178/54/66 176/53/66 108/53/66 110/54/66
f 162/46/65 160/44/65 107/44/65 109/46/65
f 176/53/64 174/52/64 106/52/64 108/53/64
f 160/44/63 158/43/63 105/43/63 107/44/63
f 174/52/62 172/51/62 103/51/62 106/52/62
f 121/87/91 118/86/91 119/61/91 120/60/91
f 123/74/92 121/87/92 120/141/92 122/42/92
f 125/75/93 123/74/93 122/42/93 124/41/93
f 127/57/94 125/75/94 124/41/94 126/43/94
f 129/58/95 127/57/95 126/43/95 128/44/95
f 131/89/96 129/58/96 128/45/96 130/46/96
f 133/78/97 131/89/97 130/46/97 132/47/97
f 135/79/98 133/78/98 132/47/98 134/48/98
f 137/68/99 135/79/99 134/48/99 136/49/99
f 139/69/100 137/68/100 136/49/100 138/50/100
f 141/91/101 139/69/101 138/50/101 140/51/101
f 143/82/102 141/91/102 140/51/102 142/52/102
f 145/83/103 143/82/103 142/52/103 144/53/103
f 147/72/104 145/83/104 144/53/104 146/54/104
f 149/38/105 147/72/105 146/54/105 148/55/105
f 118/39/106 149/38/106 148/55/106 119/62/106
f 151/141/107 152/61/107 153/61/107 150/60/107
f 155/42/108 151/60/108 150/60/108 154/42/108
f 157/41/109 155/42/109 154/42/109 156/41/109
f 159/43/110 157/41/110 156/41/110 158/43/110
f 161/45/111 159/43/111 158/43/111 160/44/111
f 163/46/112 161/44/112 160/44/112 162/46/112
f 165/47/113 163/46/113 162/46/113 164/47/113
f 167/48/114 165/47/114 164/47/114 166/48/114
f 169/49/115 167/48/115 166/48/115 168/49/115
f 171/50/116 169/49/116 168/49/116 170/50/116
f 173/51/117 171/50/117 170/50/117 172/51/117
f 175/52/118 173/51/118 172/51/118 174/52/118
f 177/53/119 175/52/119 174/52/119 176/53/119
f 179/54/120 177/53/120 176/53/120 178/54/120
f 181/55/121 179/54/121 178/54/121 180/55/121
f 152/62/122 181/55/122 180/55/122 153/62/122
f 53/60/123 52/61/123 152/61/123 151/141/123
f 120/60/124 119/61/124 52/61/124 53/60/124
f 122/42/125 120/141/125 53/60/125 50/42/125
f 119/62/126 148/55/126 51/55/126 52/62/126
f 148/55/127 146/54/127 38/54/127 51/55/127
f 146/54/128 144/53/128 39/53/128 38/54/128
f 144/53/129 142/52/129 40/52/129 39/53/129
f 142/52/130 140/51/130 41/51/130 40/52/130
f 140/51/131 138/50/131 42/50/131 41/51/131
f 138/50/132 136/49/132 43/49/132 42/50/132
f 136/49/133 134/48/133 44/48/133 43/49/133
f 134/48/134 132/47/134 45/47/134 44/48/134
f 132/47/135 130/46/135 46/46/135 45/47/135
f 130/46/136 128/45/136 47/44/136 46/46/136
f 128/44/137 126/43/137 48/43/137 47/44/137
f 126/43/138 124/41/138 49/41/138 48/43/138
f 124/41/139 122/42/139 50/42/139 49/41/139
